<?xml version="1.0" encoding="UTF-8" standalone="no"?> <svg xmlns="http://www.w3.org/2000/svg" xmlns:xlink="http://www.w3.org/1999/xlink" xmlns:serif="http://www.serif.com/" width="100%" height="100%" viewBox="0 0 280 280" xml:space="preserve" style="fill-rule:evenodd;clip-rule:evenodd;stroke-linejoin:round;stroke-miterlimit:2;"> <g id="SVGID_1_" transform="matrix(0.968549,0,0,0.968549,-263.42,-137.722)"> <path d="M460.67,246.18L451.79,246.18L451.79,267.57L460.67,267.57C465.19,267.57 468.63,266.62 471.01,264.71C473.39,262.8 474.57,259.98 474.57,256.24C474.57,252.5 473.38,249.89 471.01,248.41C468.64,246.92 465.19,246.18 460.67,246.18ZM462.07,232.5L462.93,232.51C466.66,232.56 470.17,232.95 473.46,233.67C477,234.45 480.1,235.75 482.75,237.59C485.4,239.42 487.5,241.86 489.06,244.89C490.62,247.93 491.4,251.71 491.4,256.23C491.4,261.84 490.17,266.46 487.72,270.08C485.27,273.7 481.98,276.41 477.85,278.2L495.14,308.7L475.86,308.7L461.25,281.23L451.79,281.23L451.79,308.7L434.61,308.7L434.61,232.5L462.07,232.5ZM424.34,232.5L424.34,247L393.84,247L393.84,262.31L419.78,262.31L419.78,276.69L393.84,276.69L393.84,294.22L425.5,294.22L425.5,308.71L376.66,308.71L376.66,232.51L424.34,232.51L424.34,232.5ZM364.76,232.5L364.76,308.7L347.58,308.7L347.58,232.5L364.76,232.5ZM341.75,232.5L341.75,247L320.84,247L320.84,308.71L303.55,308.71L303.55,247L282.64,247L282.64,232.5L341.75,232.5ZM524.11,231.1C528.55,231.1 532.93,231.96 537.25,233.67C541.57,235.38 545.37,237.88 548.64,241.15L539.88,252.02L539.35,251.61C537.04,249.86 534.72,248.5 532.41,247.52C529.92,246.47 527.15,245.94 524.11,245.94C521.15,245.94 518.79,246.54 517.04,247.75C515.29,248.96 514.41,250.65 514.41,252.83C514.41,254 514.7,254.99 515.29,255.81C515.87,256.63 516.69,257.37 517.74,258.03C518.79,258.69 520.02,259.32 521.42,259.9C522.82,260.48 524.34,261.13 525.98,261.83L535.79,265.8L536.32,266.02C540.74,267.87 544.24,270.37 546.83,273.51C549.52,276.78 550.86,281.11 550.86,286.48C550.86,289.67 550.22,292.69 548.93,295.54C547.64,298.38 545.78,300.88 543.32,303.02C540.87,305.16 537.85,306.88 534.26,308.16C530.68,309.45 526.63,310.09 522.11,310.09C517.12,310.09 512.16,309.17 507.21,307.34C502.26,305.51 497.84,302.76 493.95,299.1L503.76,287.3L504.31,287.76C506.89,289.89 509.73,291.64 512.82,293.03C516.13,294.51 519.38,295.25 522.58,295.25C526.16,295.25 528.83,294.59 530.58,293.26C532.33,291.94 533.21,290.14 533.21,287.88C533.21,286.71 532.96,285.7 532.45,284.84C531.94,283.98 531.2,283.22 530.23,282.56C529.26,281.9 528.09,281.27 526.72,280.69C525.36,280.11 523.86,279.46 522.22,278.76L512.29,274.55L511.64,274.28C509.92,273.54 508.25,272.62 506.62,271.51C504.79,270.26 503.15,268.8 501.71,267.13C500.27,265.45 499.12,263.51 498.26,261.29C497.4,259.07 496.97,256.56 496.97,253.75C496.97,250.63 497.63,247.69 498.96,244.93C500.28,242.16 502.15,239.75 504.57,237.68C506.98,235.62 509.85,234 513.16,232.83C516.49,231.69 520.13,231.1 524.11,231.1ZM513.27,318.21L519.93,332.59L520.36,333.49C521.07,335.01 521.79,336.6 522.5,338.25C523.36,340.24 524.33,342.44 525.42,344.85L525.89,344.85L526.17,344.05C526.93,341.95 527.67,340.01 528.4,338.24C529.22,336.25 530.02,334.36 530.8,332.57L536.88,318.19L555.22,318.19L535.47,356.06L556.5,394.4L537.34,394.4L529.75,378.86L528.82,376.84C528.21,375.5 527.6,374.16 527,372.84C526.1,370.85 525.11,368.69 524.02,366.35L523.55,366.35L523.23,367.22C522.48,369.23 521.73,371.1 520.98,372.84C520.12,374.83 519.27,376.83 518.41,378.86L511.28,394.4L492.82,394.4L513.97,355.25L494.11,318.2L513.27,318.2L513.27,318.21ZM417.39,318.21L417.39,332.7L386.89,332.7L386.89,348.01L412.83,348.01L412.83,362.39L386.89,362.39L386.89,379.92L418.55,379.92L418.55,394.41L369.71,394.41L369.71,318.21L417.39,318.21ZM356.59,318.21L356.59,394.41L339.41,394.41L339.41,318.21L356.59,318.21ZM300.93,318.21L300.93,379.92L331.08,379.92L331.08,394.41L283.76,394.41L283.76,318.21L300.93,318.21ZM445.7,318.21L445.7,361.43C445.75,368.61 446.88,373.65 449.09,376.53C451.35,379.49 454.62,380.97 458.9,380.97C463.18,380.97 466.49,379.49 468.83,376.53C471.17,373.57 472.34,368.35 472.34,360.87L472.34,318.21L488.93,318.21L488.93,359.79C488.84,372.22 486.29,381.31 481.28,387.05C476.18,392.89 468.72,395.82 458.9,395.82C449.01,395.82 441.45,392.9 436.23,387.05C431.01,381.21 428.4,371.9 428.4,359.12L428.4,318.21L445.7,318.21Z" style="fill:white;fill-rule:nonzero;"></path> </g> <g transform="matrix(0.968549,0,0,0.968549,-263.42,-137.722)"> <clipPath id="_clip1"> <path d="M388.83,428.24C392.14,428.24 395.57,428.16 399.11,428.01C402.65,427.85 406.11,427.62 409.5,427.31C411.31,427.15 413.42,426.96 415.83,426.73C418.24,426.5 420.78,426.24 423.46,425.97C426.13,425.7 428.75,425.41 431.31,425.09C433.87,424.78 436.19,424.51 438.26,424.27C440.33,424.04 442.01,423.84 443.29,423.69C444.57,423.53 445.21,423.46 445.21,423.46L447.13,421.47C444.8,420.61 442.33,420.07 439.73,419.83C437.13,419.6 434.55,419.48 431.99,419.48C428.53,419.48 424.95,419.62 421.26,419.89C417.57,420.16 413.84,420.45 410.07,420.77C406.3,421.08 402.56,421.39 398.83,421.7C395.1,422.01 391.47,422.25 387.93,422.4C387.4,422.56 386.71,422.95 385.84,423.57C384.97,424.19 384.43,424.82 384.2,425.44C384.05,425.99 384.14,426.45 384.48,426.84C384.82,427.23 385.27,427.52 385.84,427.72C386.4,427.91 386.95,428.05 387.48,428.13C388,428.2 388.46,428.24 388.83,428.24Z"></path> </clipPath> <g clip-path="url(#_clip1)"> <rect x="379.13" y="414.48" width="73" height="18.76" style="fill:rgb(232,51,109);"></rect> </g> </g> <g transform="matrix(0.968549,0,0,0.968549,-263.42,-137.722)"> <clipPath id="_clip2"> <path d="M521.96,204.52C522.3,202.98 522.62,201.63 522.92,200.48C523.22,199.32 523.59,198.25 524.03,197.25C524.47,196.25 525.07,195.29 525.85,194.36C526.62,193.43 527.69,192.39 529.03,191.23C528.9,192.77 528.69,194.13 528.42,195.32C528.15,196.51 527.75,197.61 527.21,198.64C526.67,199.67 525.98,200.66 525.14,201.63C524.3,202.6 523.24,203.56 521.96,204.52ZM527.29,224.97C528.4,224.97 529.75,224.84 531.35,224.58C532.95,224.32 534.63,223.93 536.39,223.4C538.15,222.88 539.93,222.23 541.72,221.44C543.51,220.66 545.11,219.76 546.51,218.75C547.91,217.74 549.05,216.6 549.93,215.32C550.81,214.05 551.25,212.69 551.25,211.26C551.25,210.74 551.18,210.22 551.05,209.69C550.92,209.17 550.53,208.91 549.88,208.91C549.23,208.91 548.61,209.15 548.02,209.64C547.43,210.13 546.88,210.7 546.36,211.35C545.84,212 545.33,212.64 544.84,213.26C544.35,213.88 543.94,214.35 543.62,214.68C541.27,216.57 538.7,217.94 535.89,218.79C533.09,219.64 530.15,220.06 527.08,220.06C526.04,220.06 525.07,220.01 524.19,219.91C523.31,219.81 522.53,219.55 521.84,219.13C521.16,218.71 520.62,218.13 520.23,217.42C519.84,216.7 519.64,215.76 519.64,214.58L519.64,214.38C519.64,214.18 519.71,213.86 519.84,213.4C519.97,212.94 520.07,212.62 520.13,212.42C522.22,210.66 524.08,208.98 525.71,207.38C527.34,205.78 528.73,204.07 529.87,202.24C531.01,200.41 531.86,198.42 532.41,196.27C532.96,194.12 533.24,191.64 533.24,188.83C533.24,188.57 533.22,188.1 533.19,187.41C533.16,186.72 533.14,186.25 533.14,185.99C532.88,185.27 532.57,184.6 532.21,183.98C531.85,183.36 531.25,183.05 530.4,183.05C528.12,183.05 526.21,183.56 524.68,184.57C523.15,185.58 521.89,186.87 520.91,188.44C519.93,190.01 519.17,191.7 518.61,193.53C518.06,195.36 517.58,197.06 517.19,198.62C517.06,199.01 516.88,199.75 516.65,200.82C516.42,201.9 516.16,203.02 515.87,204.2C515.58,205.38 515.28,206.47 514.99,207.48C514.7,208.49 514.48,209.19 514.35,209.59L513.86,216.35C514.71,219.81 516.29,222.11 518.61,223.25C520.94,224.4 523.83,224.97 527.29,224.97ZM480.64,224.97C481.48,224.97 482.21,224.95 482.82,224.92C483.43,224.89 484.03,224.8 484.61,224.67C485.19,224.54 485.84,224.39 486.55,224.22C487.26,224.05 488.13,223.81 489.17,223.48C489.95,223.15 491.16,222.67 492.8,222.04C494.45,221.41 496.14,220.77 497.89,220.11C499.63,219.45 501.27,218.82 502.78,218.23C504.3,217.64 505.28,217.27 505.74,217.14C507.36,216.41 509.05,215.52 510.83,214.46C512.61,213.4 514.24,212.18 515.72,210.79C517.21,209.4 518.45,207.85 519.45,206.13C520.45,204.41 520.95,202.5 520.95,200.38C520.95,199.72 520.84,199.04 520.61,198.35C520.38,197.66 519.85,197.31 519.01,197.31C518.11,197.31 517.43,197.64 516.97,198.3C516.52,198.96 516.11,199.74 515.76,200.63C515.4,201.52 515.08,202.43 514.79,203.36C514.5,204.28 514.16,205.01 513.77,205.54C512.09,207.46 509.83,209.29 506.99,211.04C504.15,212.79 501.13,214.29 497.93,215.55C494.73,216.81 491.55,217.81 488.38,218.57C485.21,219.33 482.47,219.71 480.14,219.71C480.01,219.71 479.56,219.69 478.78,219.66C478,219.63 477.52,219.61 477.33,219.61C476.81,219.28 476.25,218.95 475.63,218.62C475.02,218.29 474.64,217.79 474.52,217.13L474.52,216.24C474.52,215.84 474.5,215.45 474.47,215.05C474.44,214.65 474.42,214.26 474.42,213.86L474.42,212.97C474.42,210.86 474.66,209.04 475.15,207.52C475.63,206 476.31,204.58 477.19,203.26C478.06,201.94 479.08,200.63 480.24,199.35C481.4,198.06 482.66,196.59 484.02,194.94C484.08,194.81 484.23,194.63 484.46,194.4C484.69,194.17 484.83,194.02 484.9,193.95L485.29,193.95C485.81,194.08 486.23,194.31 486.55,194.64C486.87,194.97 487.18,195.3 487.47,195.63C487.76,195.96 488.1,196.24 488.49,196.47C488.88,196.7 489.33,196.82 489.85,196.82C490.69,196.82 491.43,196.65 492.08,196.32C492.73,195.99 493.05,195.4 493.05,194.54C493.05,193.75 492.9,192.87 492.61,191.91C492.32,190.95 491.9,190.04 491.35,189.19C490.8,188.33 490.17,187.6 489.46,187.01C488.75,186.42 487.94,186.12 487.04,186.12C486.59,186.12 486.25,186.17 486.02,186.27C485.79,186.37 485.6,186.5 485.44,186.67C485.28,186.84 485.08,187 484.86,187.17C484.63,187.34 484.36,187.52 484.04,187.71C482.81,187.25 481.37,187.61 479.73,188.8C478.08,189.99 476.47,191.67 474.88,193.85C473.3,196.03 471.91,198.64 470.71,201.68C469.51,204.72 468.76,207.92 468.43,211.29C468.56,213.54 468.83,215.5 469.25,217.19C469.67,218.87 470.33,220.29 471.24,221.45C472.14,222.61 473.36,223.48 474.87,224.08C476.39,224.67 478.31,224.97 480.64,224.97ZM429.66,224.97C430.08,224.97 430.49,224.92 430.88,224.82C431.27,224.72 431.61,224.57 431.9,224.37C432.19,224.17 432.31,223.87 432.24,223.47C432.3,222.93 432.43,222.06 432.63,220.86C432.82,219.66 433.04,218.38 433.26,217.05C433.49,215.71 433.73,214.44 433.99,213.24C434.25,212.04 434.44,211.2 434.57,210.73C434.96,209.39 435.59,207.69 436.47,205.61C437.35,203.54 438.39,201.49 439.59,199.49C440.79,197.48 442.16,195.78 443.68,194.37C445.21,192.96 446.75,192.26 448.31,192.26L448.31,195.57L444.51,215.04L444.51,216.34C444.51,217.41 444.56,218.41 444.66,219.35C444.76,220.29 444.98,221.14 445.34,221.91C445.7,222.68 446.23,223.3 446.95,223.77C447.66,224.24 448.64,224.47 449.87,224.47C451.1,224.47 452.6,224.24 454.35,223.77C456.1,223.3 457.91,222.67 459.76,221.86C461.61,221.06 463.49,220.09 465.41,218.95C467.33,217.81 469.01,216.61 470.48,215.34C471.94,214.07 473.14,212.71 474.08,211.28C475.02,209.84 475.49,208.39 475.49,206.91C475.49,206.44 475.34,206.06 475.05,205.76C474.76,205.46 474.38,205.31 473.93,205.31L473.54,205.31C472.24,206.85 470.71,208.44 468.96,210.08C467.21,211.72 465.32,213.17 463.31,214.45C461.3,215.72 459.2,216.78 457.03,217.61C454.85,218.45 452.76,218.86 450.75,218.86L450.75,210.73L454.45,193.57L454.45,193.17C454.45,193.04 454.47,192.95 454.5,192.92L454.52,192.89C454.54,192.85 454.55,192.77 454.55,192.67C454.55,190.8 454.01,189.26 452.94,188.05C451.87,186.85 450.39,186.24 448.51,186.24C447.6,186.24 446.64,186.47 445.64,186.94C444.63,187.41 443.77,187.98 443.06,188.65C442.87,188.92 442.44,189.35 441.79,189.95C441.14,190.55 440.44,191.19 439.7,191.86C438.95,192.53 438.25,193.16 437.61,193.77C436.96,194.37 436.51,194.77 436.25,194.97L436.25,188.14C436.25,187.54 435.91,187.05 435.23,186.68C434.55,186.31 433.95,186.13 433.43,186.13C433.24,186.13 432.88,186.15 432.36,186.18C431.84,186.21 431.48,186.36 431.29,186.63L429.34,199.98L429.34,202.79L426,222.86L426,223.16C426,223.96 426.29,224.46 426.88,224.67C427.46,224.87 428.05,224.97 428.63,224.97L429.66,224.97ZM382.57,219.86L382.57,217.11L384.94,205.19C385.01,204.99 385.12,204.73 385.28,204.43C385.44,204.12 385.64,203.8 385.87,203.46C386.1,203.12 386.31,202.83 386.51,202.59C386.71,202.35 386.84,202.23 386.9,202.23C387.23,201.89 387.84,201.25 388.72,200.3C389.6,199.35 390.56,198.33 391.58,197.24C392.6,196.15 393.57,195.15 394.49,194.24C395.41,193.32 396.07,192.7 396.46,192.36C396.59,192.29 396.87,192.26 397.3,192.26L398.14,192.26C399.13,192.26 399.91,192.33 400.51,192.46C401.11,192.59 401.82,193.04 402.68,193.78C402.68,193.92 402.7,194.12 402.73,194.39L402.75,194.54C402.77,194.74 402.78,194.89 402.78,195C402.78,196.97 402.53,198.89 402.04,200.75C401.55,202.62 401.27,204.57 401.2,206.61C400.41,207.83 399.29,209.21 397.85,210.73C396.4,212.26 394.8,213.7 393.02,215.06C391.25,216.42 389.44,217.56 387.6,218.47C385.75,219.4 384.08,219.86 382.57,219.86ZM381.79,224.97C383.56,224.97 385.3,224.61 387,223.88C388.7,223.15 390.37,222.29 392.01,221.3C393.65,220.31 395.22,219.21 396.73,218.02C398.24,216.83 399.65,215.7 400.96,214.64C400.83,215.9 400.85,217.11 401.01,218.27C401.17,219.43 401.49,220.42 401.94,221.25C402.4,222.08 403.09,222.74 404,223.24C404.92,223.74 406.1,223.99 407.54,223.99C408.46,223.99 409.49,223.87 410.64,223.64C411.79,223.41 412.95,223.09 414.13,222.7C415.31,222.3 416.46,221.89 417.57,221.46C418.68,221.03 419.7,220.55 420.62,220.02C421.14,219.82 422.01,219.39 423.22,218.73C424.43,218.07 425.73,217.37 427.1,216.64C428.48,215.91 429.77,215.25 430.98,214.65C432.19,214.05 433.03,213.59 433.49,213.26C433.82,212.99 434,212.71 434.03,212.41C434.06,212.11 434.08,211.8 434.08,211.47C434.08,210.81 433.87,210.28 433.44,209.88C433.01,209.48 432.47,209.28 431.82,209.28C431.75,209.28 431.64,209.3 431.48,209.33L431.37,209.35C431.27,209.37 431.19,209.38 431.14,209.38L412.47,218.13C411.81,218.4 411.18,218.54 410.55,218.58C409.93,218.61 409.29,218.63 408.63,218.63C408.5,218.63 408.17,218.61 407.65,218.58C407.13,218.55 406.8,218.53 406.67,218.53C406.6,218.4 406.52,218.02 406.42,217.39C406.32,216.76 406.24,216.38 406.17,216.25L406.17,215.65C406.17,213.86 406.35,212.15 406.71,210.53C407.07,208.91 407.46,207.27 407.89,205.61C408.32,203.95 408.71,202.31 409.07,200.69C409.43,199.07 409.61,197.39 409.61,195.67C409.61,194.41 409.5,193.15 409.27,191.89C409.04,190.63 408.65,189.5 408.09,188.51C407.53,187.52 406.78,186.7 405.83,186.07C404.88,185.44 403.68,185.13 402.24,185.13L400.47,185.13C396.54,185.59 392.92,186.87 389.61,188.96C386.3,191.05 383.58,193.63 381.45,196.71C379.32,199.79 377.85,203.25 377.03,207.1C376.21,210.94 376.36,214.85 377.47,218.83L377.47,221.91C377.8,222.97 378.35,223.75 379.14,224.25C379.93,224.72 380.81,224.97 381.79,224.97ZM357.73,224.97C358.65,224.97 359.97,224.67 361.7,224.07C363.43,223.47 365.33,222.67 367.39,221.66C369.45,220.66 371.56,219.54 373.72,218.3C375.88,217.06 377.84,215.81 379.61,214.54C381.38,213.27 382.82,212.03 383.93,210.83C385.04,209.63 385.6,208.62 385.6,207.82C385.6,207.62 385.57,207.32 385.5,206.92C385.43,206.52 385.3,206.32 385.11,206.32L382.17,206.32C381.65,206.72 381.16,207.12 380.7,207.52C379.78,208.26 379,208.82 378.35,209.23C377.96,209.5 377.55,209.78 377.12,210.08C376.69,210.38 376.35,210.77 376.09,211.23L367.46,216.65C366.74,216.78 366.05,217 365.4,217.3C364.75,217.6 364.08,217.92 363.39,218.25C362.7,218.58 362.03,218.89 361.38,219.15C360.73,219.42 360.01,219.55 359.22,219.55C358.89,219.55 358.55,219.53 358.19,219.5C357.83,219.47 357.68,219.15 357.75,218.55L357.75,215.94C357.75,214.6 357.9,213.11 358.19,211.48C358.48,209.84 358.78,208.2 359.07,206.56C359.36,204.92 359.66,203.3 359.95,201.69C360.24,200.08 360.39,198.65 360.39,197.38C360.39,195.98 360.14,194.89 359.65,194.12C359.16,193.35 358.33,192.63 357.15,191.96C356.1,191.42 354.89,190.92 353.52,190.46C352.15,190 350.85,189.56 349.64,189.16C348.43,188.76 347.42,188.39 346.6,188.06C345.78,187.73 345.41,187.42 345.47,187.16C344.82,187.16 344.26,187.39 343.8,187.86C343.34,188.33 342.95,188.88 342.62,189.52C342.29,190.16 342.05,190.84 341.88,191.58C341.72,192.32 341.63,192.95 341.63,193.49C341.63,194.03 341.65,194.48 341.68,194.84C341.71,195.21 341.86,195.63 342.12,196.09C341.4,197.9 340.88,199.55 340.55,201.06C340.22,202.56 339.8,203.99 339.27,205.32C338.74,206.65 338.04,208 337.16,209.33C336.28,210.66 334.92,212.04 333.09,213.44C333.02,214.64 333.06,215.56 333.19,216.2C333.32,216.84 333.5,217.3 333.73,217.6C333.96,217.9 334.19,218.08 334.42,218.15C334.65,218.22 334.8,218.25 334.86,218.25C337.41,216.44 339.23,214.6 340.31,212.73C341.39,210.86 342.21,208.98 342.76,207.11C343.32,205.24 343.87,203.43 344.43,201.69C344.99,199.95 345.98,198.31 347.42,196.77C347.42,196.84 347.89,197.09 348.84,197.52C349.79,197.95 350.82,198.46 351.93,199.02C353.04,199.58 354.07,200.11 355.02,200.58C355.97,201.05 356.44,201.32 356.44,201.38C356.44,202.18 356.21,203.25 355.75,204.59C355.29,205.93 354.77,207.3 354.18,208.7C353.59,210.1 353.07,211.48 352.61,212.81C352.15,214.14 351.92,215.18 351.92,215.92C351.92,216.92 352,217.94 352.17,218.98C352.33,220.02 352.64,220.97 353.1,221.84C353.56,222.71 354.15,223.45 354.87,224.05C355.61,224.67 356.56,224.97 357.73,224.97ZM295.29,223.95C295.97,223.95 296.44,223.75 296.71,223.36L302.37,212.85L308.03,194.18L309.01,186.52L310.86,186.52C311.38,186.52 311.92,186.5 312.47,186.47C313.02,186.44 313.49,186.42 313.89,186.42C316.62,186.42 319.34,186.6 322.04,186.96C324.74,187.32 327.39,187.5 329.99,187.5C330.84,187.5 331.7,187.24 332.58,186.71C333.46,186.19 333.9,185.43 333.9,184.45C333.9,183.66 333.57,183.09 332.92,182.73C332.27,182.37 331.5,182.11 330.63,181.94C329.75,181.78 328.89,181.69 328.04,181.69L310.38,181.69C309.86,181.82 309.58,181.74 309.55,181.44C309.52,181.14 309.5,180.87 309.5,180.6C309.5,177.98 309.58,175.41 309.74,172.89L309.83,171.37C309.93,169.34 309.99,167.27 309.99,165.18C309.99,163.54 309.91,161.94 309.75,160.37C309.59,158.8 309.51,157.23 309.51,155.65L309.51,154.96L333.23,152.99C334.01,152.92 334.86,152.58 335.77,151.96C336.68,151.34 337.14,150.6 337.14,149.75C337.14,149.68 337.12,149.57 337.09,149.41L337.07,149.3C337.05,149.2 337.04,149.12 337.04,149.07C336.84,148.87 336.6,148.58 336.31,148.19C336.02,147.8 335.66,147.37 335.24,146.91C334.82,146.45 334.36,146.06 333.87,145.73C333.38,145.4 332.88,145.24 332.36,145.24C331.71,145.24 331.32,145.39 331.19,145.68C331.06,145.97 331.01,146.34 331.04,146.76C331.07,147.18 331.07,147.6 331.04,147.99C331.01,148.38 330.83,148.61 330.5,148.68C327.51,149.27 324.43,149.65 321.28,149.81C318.12,149.97 315.05,150.06 312.06,150.06C311.02,150.06 310.06,149.96 309.18,149.77C308.3,149.58 307.44,149.36 306.59,149.13C305.74,148.9 304.88,148.67 304,148.44C303.12,148.21 302.26,148.1 301.41,148.1C301.28,148.1 301.04,148.12 300.68,148.15L300.51,148.16C300.24,148.18 300.06,148.19 299.95,148.19C299.69,148.52 299.54,148.83 299.51,149.12C299.48,149.41 299.46,149.73 299.46,150.05C299.46,150.77 299.59,151.33 299.85,151.72C300.11,152.11 300.44,152.47 300.83,152.8C301.22,153.13 301.63,153.49 302.05,153.88C302.47,154.27 302.91,154.76 303.37,155.35C303.96,156.2 304.35,157.18 304.54,158.3C304.74,159.41 304.87,160.54 304.93,161.69C305,162.84 305,163.98 304.93,165.13C304.86,166.28 304.83,167.31 304.83,168.23C304.83,169.08 304.86,170.13 304.93,171.37C305,172.61 305.01,173.88 304.98,175.15C304.95,176.43 304.83,177.66 304.64,178.83C304.44,180.01 304.15,180.96 303.76,181.68C301.87,181.81 299.82,181.97 297.61,182.17C295.4,182.37 293.15,182.56 290.88,182.76C288.6,182.96 286.33,183.09 284.05,183.15C281.77,183.22 279.66,183.22 277.71,183.15C277.12,183.02 276.78,183.15 276.69,183.54C276.59,183.93 276.54,184.26 276.54,184.52C276.54,184.98 276.59,185.37 276.69,185.7C276.79,186.03 277.13,186.29 277.71,186.49C278.36,186.62 278.9,186.7 279.32,186.74C279.74,186.77 280.17,186.81 280.59,186.84C281.01,186.87 281.44,186.89 281.86,186.89L283.37,186.89C286.43,186.89 289.47,186.82 292.5,186.69C295.53,186.56 298.57,186.49 301.63,186.49C302.15,186.49 302.57,186.54 302.9,186.64C303.23,186.74 303.39,187.08 303.39,187.67C303.39,190.09 303.15,192.47 302.66,194.79C302.17,197.12 301.55,199.41 300.81,201.67C300.06,203.93 299.2,206.14 298.22,208.3C297.24,210.46 296.27,212.59 295.29,214.69C294.9,215.41 294.51,216.03 294.12,216.56C293.73,217.08 293.37,217.59 293.05,218.08C292.73,218.57 292.45,219.13 292.22,219.75C291.99,220.37 291.88,221.17 291.88,222.16C291.88,222.55 291.9,222.86 291.93,223.09C291.96,223.32 292.11,223.6 292.37,223.93L295.29,223.93L295.29,223.95Z"></path> </clipPath> <g clip-path="url(#_clip2)"> <rect x="271.51" y="140.24" width="284.75" height="89.73" style="fill:rgb(232,51,109);"></rect> </g> </g> <g transform="matrix(0.968549,0,0,0.968549,-263.42,-137.722)"> <path d="M521.96,204.52C522.3,202.98 522.62,201.63 522.92,200.48C523.22,199.32 523.59,198.25 524.03,197.25C524.47,196.25 525.07,195.29 525.85,194.36C526.62,193.43 527.69,192.39 529.03,191.23C528.9,192.77 528.69,194.13 528.42,195.32C528.15,196.51 527.75,197.61 527.21,198.64C526.67,199.67 525.98,200.66 525.14,201.63C524.3,202.6 523.24,203.56 521.96,204.52ZM527.29,224.97C528.4,224.97 529.75,224.84 531.35,224.58C532.95,224.32 534.63,223.93 536.39,223.4C538.15,222.88 539.93,222.22 541.72,221.44C543.51,220.66 545.11,219.76 546.51,218.75C547.91,217.74 549.05,216.6 549.93,215.32C550.81,214.05 551.25,212.69 551.25,211.26C551.25,210.74 551.18,210.22 551.05,209.69C550.92,209.17 550.53,208.91 549.88,208.91C549.23,208.91 548.61,209.15 548.02,209.64C547.43,210.13 546.88,210.7 546.36,211.35C545.84,212 545.33,212.64 544.84,213.26C544.35,213.88 543.94,214.35 543.62,214.68C541.27,216.57 538.7,217.94 535.89,218.79C533.09,219.64 530.15,220.06 527.08,220.06C526.04,220.06 525.07,220.01 524.19,219.91C523.31,219.81 522.53,219.55 521.84,219.13C521.16,218.71 520.62,218.13 520.23,217.42C519.84,216.7 519.64,215.76 519.64,214.58L519.64,214.38C519.64,214.18 519.71,213.86 519.84,213.4C519.97,212.94 520.07,212.62 520.13,212.42C522.22,210.66 524.08,208.98 525.71,207.38C527.34,205.78 528.73,204.07 529.87,202.24C531.01,200.41 531.86,198.42 532.41,196.27C532.96,194.12 533.24,191.64 533.24,188.83C533.24,188.57 533.22,188.1 533.19,187.41C533.16,186.72 533.14,186.25 533.14,185.99C532.88,185.27 532.57,184.6 532.21,183.98C531.85,183.36 531.25,183.05 530.4,183.05C528.12,183.05 526.21,183.56 524.68,184.57C523.15,185.58 521.89,186.87 520.91,188.44C519.93,190.01 519.17,191.7 518.61,193.53C518.06,195.36 517.58,197.06 517.19,198.62C517.06,199.01 516.88,199.75 516.65,200.82C516.42,201.9 516.16,203.02 515.87,204.2C515.58,205.38 515.28,206.47 514.99,207.48C514.7,208.49 514.48,209.19 514.35,209.59L513.86,216.35C514.71,219.81 516.29,222.11 518.61,223.25C520.94,224.4 523.83,224.97 527.29,224.97ZM480.64,224.97C481.48,224.97 482.21,224.95 482.82,224.92C483.43,224.89 484.03,224.8 484.61,224.67C485.19,224.54 485.84,224.39 486.55,224.22C487.26,224.05 488.13,223.81 489.17,223.48C489.95,223.15 491.16,222.67 492.8,222.04C494.45,221.41 496.14,220.77 497.89,220.11C499.63,219.45 501.27,218.82 502.78,218.23C504.3,217.64 505.28,217.27 505.74,217.14C507.36,216.41 509.05,215.52 510.83,214.46C512.61,213.4 514.24,212.18 515.72,210.79C517.21,209.4 518.45,207.85 519.45,206.13C520.45,204.41 520.95,202.5 520.95,200.38C520.95,199.72 520.84,199.04 520.61,198.35C520.38,197.66 519.85,197.31 519.01,197.31C518.11,197.31 517.43,197.64 516.97,198.3C516.52,198.96 516.11,199.74 515.76,200.63C515.4,201.52 515.08,202.43 514.79,203.35C514.5,204.27 514.16,205 513.77,205.53C512.09,207.45 509.83,209.28 506.99,211.03C504.15,212.78 501.13,214.28 497.93,215.54C494.73,216.8 491.55,217.8 488.38,218.56C485.21,219.32 482.47,219.7 480.14,219.7C480.01,219.7 479.56,219.68 478.78,219.65C478,219.62 477.52,219.6 477.33,219.6C476.81,219.27 476.25,218.94 475.63,218.61C475.02,218.28 474.64,217.78 474.52,217.12L474.52,216.23C474.52,215.83 474.5,215.44 474.47,215.04C474.44,214.64 474.42,214.25 474.42,213.85L474.42,212.96C474.42,210.85 474.66,209.03 475.15,207.51C475.63,205.99 476.31,204.57 477.19,203.25C478.06,201.93 479.08,200.62 480.24,199.34C481.4,198.05 482.66,196.58 484.02,194.93C484.08,194.8 484.23,194.62 484.46,194.39C484.69,194.16 484.83,194.01 484.9,193.94L485.29,193.94C485.81,194.07 486.23,194.3 486.55,194.63C486.87,194.96 487.18,195.29 487.47,195.62C487.76,195.95 488.1,196.23 488.49,196.46C488.88,196.69 489.33,196.81 489.85,196.81C490.69,196.81 491.43,196.64 492.08,196.31C492.73,195.98 493.05,195.39 493.05,194.53C493.05,193.74 492.9,192.86 492.61,191.9C492.32,190.94 491.9,190.03 491.35,189.18C490.8,188.33 490.17,187.59 489.46,187C488.75,186.41 487.94,186.11 487.04,186.11C486.59,186.11 486.25,186.16 486.02,186.26C485.79,186.36 485.6,186.49 485.44,186.66C485.28,186.83 485.08,186.99 484.86,187.16C484.63,187.33 484.36,187.51 484.04,187.7C482.81,187.24 481.37,187.6 479.73,188.79C478.09,189.98 476.47,191.66 474.88,193.84C473.3,196.02 471.91,198.63 470.71,201.67C469.51,204.71 468.76,207.91 468.43,211.28C468.56,213.53 468.83,215.49 469.25,217.18C469.67,218.87 470.33,220.28 471.24,221.44C472.14,222.6 473.36,223.47 474.87,224.07C476.39,224.67 478.31,224.97 480.64,224.97ZM429.66,224.97C430.08,224.97 430.49,224.92 430.88,224.82C431.27,224.72 431.61,224.57 431.9,224.37C432.19,224.17 432.31,223.87 432.24,223.47C432.3,222.93 432.43,222.06 432.63,220.86C432.82,219.66 433.04,218.38 433.26,217.05C433.49,215.71 433.73,214.44 433.99,213.24C434.25,212.04 434.44,211.2 434.57,210.73C434.96,209.39 435.59,207.69 436.47,205.61C437.35,203.54 438.39,201.49 439.59,199.49C440.79,197.48 442.16,195.78 443.68,194.37C445.21,192.96 446.75,192.26 448.31,192.26L448.31,195.57L444.51,215.04L444.51,216.34C444.51,217.41 444.56,218.41 444.66,219.35C444.76,220.29 444.98,221.14 445.34,221.91C445.7,222.68 446.23,223.3 446.95,223.77C447.66,224.24 448.64,224.47 449.87,224.47C451.1,224.47 452.6,224.24 454.35,223.77C456.1,223.3 457.91,222.67 459.76,221.86C461.61,221.06 463.49,220.09 465.41,218.95C467.33,217.81 469.01,216.61 470.48,215.34C471.94,214.07 473.14,212.71 474.08,211.28C475.02,209.84 475.49,208.39 475.49,206.91C475.49,206.44 475.34,206.06 475.05,205.76C474.76,205.46 474.38,205.31 473.93,205.31L473.54,205.31C472.24,206.85 470.71,208.44 468.96,210.08C467.21,211.72 465.32,213.17 463.31,214.45C461.3,215.72 459.2,216.78 457.03,217.61C454.85,218.45 452.76,218.86 450.75,218.86L450.75,210.73L454.45,193.57L454.45,193.17C454.45,193.04 454.47,192.95 454.5,192.92L454.52,192.89C454.54,192.85 454.55,192.77 454.55,192.67C454.55,190.8 454.01,189.26 452.94,188.05C451.87,186.85 450.39,186.24 448.51,186.24C447.6,186.24 446.64,186.47 445.64,186.94C444.63,187.41 443.77,187.98 443.06,188.65C442.87,188.92 442.44,189.35 441.79,189.95C441.14,190.55 440.44,191.19 439.7,191.86C438.95,192.53 438.25,193.16 437.61,193.77C436.96,194.37 436.51,194.77 436.25,194.97L436.25,188.14C436.25,187.54 435.91,187.05 435.23,186.68C434.55,186.31 433.95,186.13 433.43,186.13C433.24,186.13 432.88,186.15 432.36,186.18C431.84,186.21 431.48,186.36 431.29,186.63L429.34,199.98L429.34,202.79L426,222.86L426,223.16C426,223.96 426.29,224.46 426.88,224.67C427.46,224.87 428.05,224.97 428.63,224.97L429.66,224.97ZM382.57,219.86L382.57,217.11L384.94,205.19C385.01,204.99 385.12,204.73 385.28,204.43C385.44,204.12 385.64,203.8 385.87,203.46C386.1,203.12 386.31,202.83 386.51,202.59C386.71,202.35 386.84,202.23 386.9,202.23C387.23,201.89 387.84,201.25 388.72,200.3C389.6,199.35 390.56,198.33 391.58,197.24C392.6,196.15 393.57,195.15 394.49,194.24C395.41,193.33 396.07,192.7 396.46,192.36C396.59,192.29 396.87,192.26 397.3,192.26L398.14,192.26C399.13,192.26 399.91,192.33 400.51,192.46C401.1,192.6 401.82,193.04 402.68,193.78C402.68,193.92 402.7,194.12 402.73,194.39L402.75,194.54C402.77,194.74 402.78,194.89 402.78,195C402.78,196.97 402.53,198.89 402.04,200.75C401.55,202.62 401.27,204.57 401.2,206.61C400.41,207.83 399.29,209.21 397.85,210.73C396.4,212.26 394.8,213.7 393.02,215.06C391.24,216.42 389.44,217.56 387.6,218.47C385.75,219.4 384.08,219.86 382.57,219.86ZM381.79,224.97C383.56,224.97 385.3,224.61 387,223.88C388.7,223.15 390.37,222.29 392.01,221.3C393.65,220.31 395.22,219.21 396.73,218.02C398.24,216.83 399.65,215.7 400.96,214.64C400.83,215.9 400.85,217.11 401.01,218.27C401.17,219.43 401.49,220.42 401.94,221.25C402.4,222.08 403.09,222.74 404,223.24C404.92,223.74 406.1,223.99 407.54,223.99C408.46,223.99 409.49,223.87 410.64,223.64C411.79,223.41 412.95,223.09 414.13,222.7C415.31,222.3 416.46,221.89 417.57,221.46C418.68,221.03 419.7,220.55 420.62,220.02C421.14,219.82 422.01,219.39 423.22,218.73C424.43,218.07 425.73,217.37 427.1,216.64C428.48,215.91 429.77,215.25 430.98,214.65C432.19,214.05 433.03,213.59 433.49,213.26C433.82,212.99 434,212.71 434.03,212.41C434.06,212.11 434.08,211.8 434.08,211.47C434.08,210.81 433.87,210.28 433.44,209.88C433.01,209.48 432.47,209.28 431.82,209.28C431.75,209.28 431.64,209.3 431.48,209.33L431.37,209.35C431.27,209.37 431.19,209.38 431.14,209.38L412.47,218.13C411.81,218.4 411.18,218.54 410.55,218.58C409.92,218.62 409.29,218.63 408.63,218.63C408.5,218.63 408.17,218.61 407.65,218.58C407.13,218.55 406.8,218.53 406.67,218.53C406.6,218.4 406.52,218.02 406.42,217.39C406.32,216.76 406.24,216.38 406.17,216.25L406.17,215.65C406.17,213.86 406.35,212.15 406.71,210.53C407.07,208.91 407.46,207.27 407.89,205.61C408.32,203.95 408.71,202.31 409.07,200.69C409.43,199.07 409.61,197.39 409.61,195.67C409.61,194.41 409.5,193.15 409.27,191.89C409.04,190.63 408.65,189.5 408.09,188.51C407.53,187.52 406.78,186.7 405.83,186.07C404.88,185.44 403.68,185.13 402.24,185.13L400.47,185.13C396.54,185.59 392.92,186.87 389.61,188.96C386.3,191.05 383.58,193.63 381.45,196.71C379.32,199.79 377.85,203.25 377.03,207.1C376.21,210.94 376.36,214.85 377.47,218.83L377.47,221.91C377.8,222.97 378.35,223.75 379.14,224.25C379.93,224.72 380.81,224.97 381.79,224.97ZM357.73,224.97C358.65,224.97 359.97,224.67 361.7,224.07C363.43,223.47 365.33,222.67 367.39,221.66C369.45,220.66 371.56,219.54 373.72,218.3C375.88,217.06 377.84,215.81 379.61,214.54C381.38,213.27 382.82,212.03 383.93,210.83C385.04,209.63 385.6,208.62 385.6,207.82C385.6,207.62 385.57,207.32 385.5,206.92C385.43,206.52 385.3,206.32 385.11,206.32L382.17,206.32C381.65,206.72 381.16,207.12 380.7,207.52C380.226,207.902 379.788,208.235 379.387,208.525C379.01,208.798 378.665,209.031 378.35,209.23C377.96,209.5 377.55,209.78 377.12,210.08C376.69,210.38 376.35,210.77 376.09,211.23L367.46,216.65C366.74,216.78 366.05,217 365.4,217.3C364.75,217.6 364.08,217.92 363.39,218.25C362.7,218.58 362.03,218.89 361.38,219.15C360.73,219.41 360.01,219.55 359.22,219.55C358.89,219.55 358.55,219.53 358.19,219.5C357.83,219.47 357.68,219.15 357.75,218.55L357.75,215.94C357.75,214.6 357.9,213.11 358.19,211.48C358.48,209.84 358.78,208.2 359.07,206.56C359.36,204.92 359.66,203.3 359.95,201.69C360.24,200.08 360.39,198.65 360.39,197.38C360.39,195.98 360.14,194.89 359.65,194.12C359.16,193.35 358.33,192.63 357.15,191.96C356.1,191.42 354.89,190.92 353.52,190.46C352.15,190 350.85,189.56 349.64,189.16C348.43,188.76 347.42,188.39 346.6,188.06C345.78,187.73 345.41,187.42 345.47,187.16C344.82,187.16 344.26,187.39 343.8,187.86C343.34,188.33 342.95,188.88 342.62,189.52C342.29,190.16 342.05,190.84 341.88,191.58C341.72,192.32 341.63,192.95 341.63,193.49C341.63,194.03 341.65,194.48 341.68,194.84C341.71,195.21 341.86,195.63 342.12,196.09C341.4,197.9 340.88,199.55 340.55,201.06C340.22,202.56 339.8,203.99 339.27,205.32C338.75,206.66 338.04,208 337.16,209.33C336.28,210.67 334.92,212.04 333.09,213.44C333.02,214.64 333.06,215.56 333.19,216.2C333.32,216.84 333.5,217.3 333.73,217.6C333.96,217.9 334.19,218.08 334.42,218.15C334.65,218.22 334.8,218.25 334.86,218.25C337.41,216.44 339.23,214.6 340.31,212.73C341.39,210.86 342.21,208.98 342.76,207.11C343.31,205.24 343.87,203.43 344.43,201.69C344.99,199.95 345.98,198.31 347.42,196.77C347.42,196.84 347.89,197.09 348.84,197.52C349.79,197.95 350.82,198.46 351.93,199.02C353.04,199.59 354.07,200.11 355.02,200.57C355.97,201.04 356.44,201.31 356.44,201.37C356.44,202.17 356.21,203.24 355.75,204.58C355.29,205.92 354.77,207.29 354.18,208.69C353.59,210.09 353.07,211.47 352.61,212.8C352.15,214.14 351.92,215.17 351.92,215.91C351.92,216.91 352,217.93 352.17,218.97C352.33,220.01 352.64,220.96 353.1,221.83C353.56,222.7 354.15,223.44 354.87,224.04C355.61,224.67 356.56,224.97 357.73,224.97ZM295.29,223.95C295.97,223.95 296.44,223.75 296.71,223.36L302.37,212.85L308.03,194.18L309.01,186.52L310.86,186.52C311.38,186.52 311.92,186.5 312.47,186.47C313.02,186.44 313.49,186.42 313.89,186.42C316.62,186.42 319.34,186.6 322.04,186.96C324.74,187.32 327.39,187.5 329.99,187.5C330.84,187.5 331.7,187.24 332.58,186.71C333.46,186.19 333.9,185.43 333.9,184.45C333.9,183.66 333.57,183.09 332.92,182.73C332.27,182.37 331.5,182.11 330.63,181.94C329.75,181.78 328.89,181.69 328.04,181.69L310.38,181.69C309.86,181.82 309.58,181.74 309.55,181.44C309.52,181.14 309.5,180.87 309.5,180.6C309.5,177.98 309.58,175.41 309.74,172.89L309.83,171.37C309.93,169.34 309.99,167.27 309.99,165.18C309.99,163.54 309.91,161.94 309.75,160.37C309.59,158.8 309.51,157.23 309.51,155.65L309.51,154.96L333.23,152.99C334.01,152.92 334.86,152.58 335.77,151.96C336.68,151.34 337.14,150.6 337.14,149.75C337.14,149.68 337.12,149.57 337.09,149.41L337.07,149.3C337.05,149.2 337.04,149.12 337.04,149.07C336.84,148.87 336.6,148.58 336.31,148.19C336.02,147.8 335.66,147.37 335.24,146.91C334.82,146.45 334.36,146.06 333.87,145.73C333.38,145.4 332.88,145.24 332.36,145.24C331.71,145.24 331.32,145.39 331.19,145.68C331.06,145.97 331.01,146.34 331.04,146.76C331.07,147.19 331.07,147.6 331.04,147.99C331.01,148.38 330.83,148.61 330.5,148.68C327.51,149.27 324.43,149.65 321.28,149.81C318.12,149.97 315.05,150.06 312.06,150.06C311.02,150.06 310.06,149.96 309.18,149.77C308.3,149.57 307.44,149.36 306.59,149.13C305.74,148.9 304.88,148.67 304,148.44C303.12,148.21 302.26,148.1 301.41,148.1C301.28,148.1 301.04,148.12 300.68,148.15L300.51,148.17C300.24,148.19 300.06,148.2 299.95,148.2C299.69,148.53 299.54,148.84 299.51,149.13C299.48,149.42 299.46,149.74 299.46,150.06C299.46,150.78 299.59,151.34 299.85,151.73C300.11,152.12 300.44,152.48 300.83,152.81C301.22,153.14 301.63,153.5 302.05,153.89C302.47,154.28 302.91,154.77 303.37,155.36C303.96,156.21 304.35,157.19 304.54,158.31C304.73,159.43 304.87,160.55 304.93,161.7C305,162.85 305,163.99 304.93,165.14C304.86,166.29 304.83,167.32 304.83,168.24C304.83,169.09 304.86,170.14 304.93,171.38C305,172.62 305.01,173.89 304.98,175.16C304.95,176.44 304.83,177.67 304.64,178.84C304.45,180.01 304.15,180.97 303.76,181.69C301.87,181.82 299.82,181.98 297.61,182.18C295.4,182.38 293.15,182.57 290.88,182.77C288.61,182.97 286.33,183.1 284.05,183.16C281.77,183.22 279.66,183.23 277.71,183.16C277.12,183.03 276.78,183.16 276.69,183.55C276.6,183.94 276.54,184.27 276.54,184.53C276.54,184.99 276.59,185.38 276.69,185.71C276.79,186.04 277.13,186.3 277.71,186.5C278.36,186.63 278.9,186.71 279.32,186.75C279.74,186.79 280.17,186.82 280.59,186.85C281.01,186.88 281.44,186.9 281.86,186.9L283.37,186.9C286.43,186.9 289.47,186.83 292.5,186.7C295.53,186.57 298.57,186.5 301.63,186.5C302.15,186.5 302.57,186.55 302.9,186.65C303.23,186.75 303.39,187.09 303.39,187.68C303.39,190.1 303.15,192.48 302.66,194.8C302.17,197.12 301.55,199.42 300.81,201.68C300.07,203.94 299.2,206.15 298.22,208.31C297.24,210.47 296.27,212.6 295.29,214.7C294.9,215.42 294.51,216.04 294.12,216.57C293.73,217.1 293.37,217.6 293.05,218.09C292.73,218.58 292.45,219.14 292.22,219.76C291.99,220.38 291.88,221.18 291.88,222.17C291.88,222.56 291.9,222.87 291.93,223.1C291.96,223.33 292.11,223.61 292.37,223.94L295.29,223.94L295.29,223.95Z" style="fill:rgb(232,51,109);fill-rule:nonzero;"></path> </g> </svg> 